<?xml version="1.0" standalone="no"?>
<!DOCTYPE svg PUBLIC "-//W3C//DTD SVG 20010904//EN"
 "http://www.w3.org/TR/2001/REC-SVG-20010904/DTD/svg10.dtd">
<svg version="1.0" xmlns="http://www.w3.org/2000/svg"
 width="679.000000pt" height="656.000000pt" viewBox="0 0 679.000000 656.000000"
 preserveAspectRatio="xMidYMid meet">
<metadata>
Created by potrace 1.16, written by Peter Selinger 2001-2019
</metadata>
<g transform="translate(0.000000,656.000000) scale(0.100000,-0.100000)"
fill="#000000" stroke="none">
<path d="M3245 6462 c-172 -51 -306 -187 -351 -356 -31 -116 -9 -268 54 -366
16 -25 61 -74 102 -110 134 -119 150 -139 204 -252 l53 -108 -44 25 -43 26
-11 -28 c-6 -15 -17 -44 -24 -63 -7 -19 -40 -96 -73 -170 -79 -178 -222 -509
-394 -915 -268 -631 -264 -621 -248 -721 25 -151 127 -283 295 -381 129 -75
268 -197 340 -298 66 -93 67 -92 -55 -152 -58 -29 -108 -52 -113 -52 -4 -1
-12 10 -16 22 -15 38 -105 141 -158 179 -26 20 -208 123 -403 231 -195 107
-413 227 -484 266 -71 40 -230 125 -355 189 l-226 117 -28 -58 c-16 -32 -53
-84 -83 -117 -55 -58 -55 -59 -32 -71 13 -7 84 -43 158 -80 149 -73 359 -187
606 -327 89 -50 250 -138 358 -196 109 -58 206 -112 216 -119 18 -13 13 -17
-68 -51 -48 -21 -102 -47 -121 -57 -18 -11 -36 -18 -38 -15 -2 2 6 27 18 55
12 29 20 53 18 54 -2 1 -33 16 -68 32 -36 17 -89 45 -119 63 -30 17 -56 32
-57 32 -8 0 -109 -240 -135 -321 l-31 -97 -47 -20 c-26 -11 -92 -42 -147 -68
-55 -25 -191 -88 -302 -139 -252 -115 -332 -162 -408 -239 -207 -210 -209
-525 -6 -726 78 -78 147 -114 260 -137 75 -15 88 -15 163 0 161 32 247 96 362
271 41 62 89 123 107 137 50 38 165 99 334 177 422 195 1350 650 1515 744 63
35 147 82 186 103 l71 38 164 -81 c90 -44 198 -96 239 -115 41 -19 188 -88
325 -154 138 -66 385 -184 550 -263 165 -78 316 -154 335 -169 148 -116 118
-345 -52 -396 -41 -12 -55 -12 -92 -1 -70 21 -99 49 -161 153 -92 153 -117
173 -403 315 -136 68 -335 166 -442 217 -107 52 -291 141 -408 199 l-212 104
-73 -50 c-39 -27 -101 -64 -136 -82 l-65 -32 25 -20 c21 -16 799 -408 812
-408 2 0 76 -34 163 -76 386 -184 400 -193 500 -344 107 -164 218 -244 369
-269 104 -17 197 -1 303 53 173 88 275 278 259 485 -7 94 -35 171 -90 254 -88
130 -161 171 -913 510 -70 31 -72 33 -84 82 -25 99 -133 355 -150 355 -5 0
-62 -27 -125 -61 l-115 -61 30 -58 30 -59 -93 43 c-50 23 -110 52 -131 63
l-39 20 69 40 c38 22 146 80 239 128 94 49 233 124 310 168 77 43 262 145 410
225 149 80 287 156 308 169 l39 24 -50 53 c-27 29 -64 78 -82 109 -18 31 -34
57 -37 57 -2 0 -37 -15 -77 -34 -69 -31 -120 -60 -506 -276 -140 -79 -712
-386 -785 -422 -60 -29 -312 -162 -385 -203 -41 -23 -140 -75 -220 -115 -80
-39 -149 -75 -155 -80 -21 -16 -394 -200 -680 -335 -49 -23 -170 -81 -268
-129 -98 -47 -181 -86 -183 -86 -2 0 -119 -57 -260 -126 -339 -168 -384 -202
-468 -356 -60 -108 -116 -152 -196 -151 -47 0 -113 27 -142 60 -29 32 -58 106
-58 150 0 108 59 189 180 245 81 38 259 123 390 185 63 31 203 97 310 148 107
51 332 159 500 240 168 81 334 158 370 172 116 45 312 143 395 198 94 63 231
137 640 345 290 148 390 199 485 252 25 14 95 51 155 83 61 32 191 105 290
163 252 147 426 235 527 268 l87 28 6 50 c13 99 53 213 98 280 l20 28 -24 -7
c-137 -42 -510 -206 -661 -291 -37 -21 -69 -36 -72 -33 -4 4 -320 746 -432
1014 -34 83 -94 224 -134 315 -95 216 -251 578 -307 710 -26 63 -49 139 -58
190 -33 198 -164 362 -344 431 -77 30 -214 35 -296 11z m202 -293 c90 -38 131
-94 143 -194 6 -43 35 -124 108 -290 55 -126 186 -432 292 -680 105 -247 213
-499 240 -560 26 -60 113 -265 193 -455 80 -190 163 -385 185 -435 23 -49 39
-92 36 -96 -4 -8 -211 -129 -219 -129 -3 0 -5 6 -5 14 0 17 -6 33 -178 436
-72 168 -189 447 -262 620 -73 173 -171 405 -217 515 -107 250 -249 584 -277
650 -54 128 -87 169 -245 303 -59 50 -73 87 -60 157 10 56 37 96 84 125 71 44
114 48 182 19z m22 -1287 c193 -453 384 -908 550 -1310 40 -95 69 -177 66
-182 -8 -12 -103 -63 -430 -230 -340 -173 -438 -225 -490 -261 l-40 -27 -45
40 -44 40 24 18 c14 11 67 41 117 67 51 26 93 50 93 53 0 7 -25 20 -243 136
-237 126 -287 158 -287 184 0 33 41 138 168 435 106 249 290 686 389 925 53
127 105 240 112 240 3 0 30 -58 60 -128z"/>
<path d="M2610 5901 c-352 -119 -619 -261 -875 -466 -94 -75 -315 -287 -315
-302 0 -4 23 -23 50 -42 27 -18 66 -58 86 -88 41 -61 31 -63 123 26 70 67 183
167 236 207 159 121 404 256 625 344 48 20 250 90 256 90 2 0 -9 -26 -23 -57
-14 -32 -87 -202 -163 -378 -76 -176 -164 -378 -195 -450 -54 -123 -131 -301
-312 -725 -44 -102 -86 -201 -93 -220 -7 -19 -16 -39 -20 -43 -4 -5 -50 15
-101 44 -99 55 -152 80 -337 160 -110 47 -301 119 -317 119 -5 0 -1 -8 8 -18
47 -52 97 -204 97 -296 l0 -42 68 -17 c102 -26 437 -196 644 -326 81 -50 381
-211 386 -207 2 2 -6 22 -17 45 -12 22 -21 47 -21 55 0 9 -15 23 -32 32 -71
36 -198 116 -198 125 0 5 25 69 56 141 91 213 584 1363 688 1602 136 312 131
268 38 362 -104 104 -162 228 -162 344 0 22 -5 30 -17 30 -10 0 -83 -23 -163
-49z"/>
<path d="M4010 5931 c1 -9 26 -78 58 -154 l57 -138 95 -38 c329 -129 652 -333
901 -569 85 -80 86 -81 97 -57 18 39 82 104 130 133 l45 26 -105 100 c-227
219 -432 363 -705 499 -174 86 -340 150 -505 196 -62 17 -68 17 -68 2z"/>
<path d="M1192 5074 c-165 -82 -201 -285 -74 -418 168 -175 449 -66 446 174
-1 78 -19 123 -71 180 -80 89 -200 115 -301 64z m188 -161 c22 -20 33 -40 37
-70 5 -39 2 -46 -30 -78 -28 -28 -43 -35 -75 -35 -72 0 -135 74 -111 131 32
78 121 104 179 52z"/>
<path d="M5383 5070 c-90 -45 -139 -117 -149 -218 -12 -108 46 -211 144 -258
91 -43 207 -25 284 44 114 103 125 255 26 367 -85 97 -195 120 -305 65z m190
-170 c39 -44 37 -92 -7 -136 -26 -26 -42 -34 -71 -34 -107 0 -148 110 -67 181
31 27 41 30 76 26 29 -4 49 -15 69 -37z"/>
<path d="M991 4593 c-22 -44 -55 -119 -75 -167 l-35 -87 22 -8 c107 -38 148
-56 182 -79 l40 -28 66 146 66 145 -58 27 c-32 15 -83 50 -113 78 l-55 52 -40
-79z"/>
<path d="M5717 4625 c-32 -38 -98 -78 -160 -99 -20 -6 -27 14 64 -187 l52
-116 48 32 c26 18 81 43 123 56 42 13 76 29 76 35 0 13 -133 282 -152 306 -12
15 -16 13 -51 -27z"/>
<path d="M635 4237 c-204 -68 -326 -238 -327 -457 0 -218 128 -394 331 -456
96 -29 266 -12 360 35 107 55 204 188 236 322 19 81 19 130 0 204 -38 146
-126 255 -263 322 -72 36 -81 38 -186 40 -71 2 -125 -2 -151 -10z m218 -293
c73 -37 107 -88 107 -161 0 -100 -69 -174 -170 -181 -50 -4 -66 0 -104 22 -92
54 -117 156 -62 250 45 77 151 109 229 70z"/>
<path d="M5891 4230 c-210 -77 -331 -244 -331 -457 0 -130 51 -244 153 -340
142 -135 381 -163 558 -67 64 35 154 128 184 189 28 56 55 169 55 230 0 63
-27 162 -63 228 -44 83 -116 151 -206 194 -71 34 -83 37 -186 40 -91 3 -119 0
-164 -17z m235 -295 c100 -59 122 -187 46 -277 -33 -38 -78 -58 -136 -58 -77
0 -138 37 -173 104 -30 58 -9 160 44 208 57 52 152 62 219 23z"/>
<path d="M920 3219 c-19 -5 -76 -9 -127 -10 l-91 -1 4 -56 c16 -187 28 -274
60 -417 41 -185 114 -407 191 -585 30 -69 59 -137 65 -153 l10 -27 30 25 c51
43 282 147 509 229 41 15 47 21 58 59 16 54 120 295 179 415 25 50 43 94 41
96 -2 2 -53 34 -114 72 -60 38 -113 73 -117 78 -4 6 -16 -10 -26 -34 -11 -25
-57 -128 -102 -230 -71 -160 -154 -364 -196 -480 -6 -19 -16 -35 -21 -35 -14
0 -96 176 -140 302 -85 237 -135 460 -151 662 -4 52 -11 95 -17 97 -5 1 -26
-2 -45 -7z"/>
<path d="M5817 3123 c-14 -239 -95 -537 -239 -880 -41 -97 -55 -96 -91 7 -31
91 -196 484 -254 606 l-38 82 -98 -58 c-53 -32 -108 -65 -122 -74 l-25 -16 59
-118 c51 -102 141 -319 168 -406 8 -26 21 -33 128 -71 148 -53 296 -119 409
-182 32 -19 60 -32 61 -31 11 13 151 357 175 430 69 204 132 515 144 711 l6
87 -88 1 c-48 0 -94 2 -102 4 -8 1 -31 6 -51 10 l-36 7 -6 -109z"/>
<path d="M4755 1279 c-151 -83 -554 -230 -734 -269 -52 -12 -97 -23 -99 -25
-2 -2 5 -44 17 -93 12 -49 21 -108 21 -131 0 -34 3 -41 19 -41 51 0 439 114
584 171 115 46 416 184 429 197 8 8 -46 84 -142 199 l-25 30 -70 -38z"/>
<path d="M1947 1278 c-13 -18 -49 -68 -80 -110 l-57 -78 130 -65 c204 -102
365 -166 584 -231 151 -45 313 -83 321 -76 3 3 5 30 5 61 0 31 9 91 19 134 17
74 18 77 0 77 -27 0 -232 55 -354 95 -141 47 -336 126 -447 181 -48 24 -90 44
-92 44 -3 0 -16 -15 -29 -32z"/>
<path d="M3247 1226 c-109 -39 -196 -117 -247 -221 -101 -206 -73 -429 73
-574 89 -89 194 -132 321 -132 90 0 154 15 226 53 227 119 310 394 196 644
-36 78 -137 176 -222 216 -60 28 -80 32 -173 35 -93 3 -114 1 -174 -21z m247
-303 c121 -85 112 -249 -16 -314 -48 -25 -101 -24 -155 2 -133 64 -127 259 10
329 54 27 106 21 161 -17z"/>
</g>
</svg>
